<svg width="24" height="24" viewBox="0 0 24 24" fill="none" xmlns="http://www.w3.org/2000/svg">
<path d="M22 10V17.4C22 17.9601 22 18.2399 21.891 18.4538C21.7951 18.642 21.6423 18.7952 21.4541 18.8911C21.2404 19 20.9605 19 20.4015 19H7.9999M18 11.8002V7.2002C18 6.08009 18 5.51962 17.782 5.0918C17.5903 4.71547 17.2845 4.40973 16.9082 4.21799C16.4804 4 15.9199 4 14.7998 4H5.1998C4.0797 4 3.51994 4 3.09212 4.21799C2.71579 4.40973 2.40952 4.71547 2.21777 5.0918C1.99979 5.51962 1.99979 6.07969 1.99979 7.19978L1.99979 11.7998C1.99979 12.9199 1.99979 13.48 2.21777 13.9078C2.40952 14.2841 2.71579 14.5905 3.09212 14.7822C3.51952 15 4.07851 15 5.19642 15H14.8031C15.921 15 16.4808 15 16.9082 14.7822C17.2845 14.5905 17.5903 14.2842 17.782 13.9079C18 13.4801 18 12.9203 18 11.8002Z" stroke="white" stroke-width="2" stroke-linecap="round" stroke-linejoin="round"/>
</svg>
