<svg width="24" height="24" viewBox="0 0 24 24" fill="none" xmlns="http://www.w3.org/2000/svg">
<g clip-path="url(#clip0_510_20775)">
<circle cx="12" cy="12" r="12" fill="#A4A4A4"/>
<path fill-rule="evenodd" clip-rule="evenodd" d="M14.3796 2.6665L8.66531 13.6469H11.5225L9.61769 21.3332L15.332 10.3528H12.4748L14.3796 2.6665ZM13.8587 4.90267L13.8584 4.90259L13.459 6.48588L13.4592 6.48594L13.8587 4.90267ZM12.0018 4.66553C12.1808 4.66553 12.3584 4.67194 12.5342 4.68456L11.6747 6.30667C8.67596 6.47526 6.29625 8.96035 6.29625 12.0013C6.29625 14.3598 7.72774 16.3839 9.76928 17.2523L9.36746 18.8448C6.61883 17.7865 4.66846 15.1204 4.66846 11.9989C4.66846 7.94877 7.9517 4.66553 12.0018 4.66553ZM11.4695 19.3132L12.3265 17.6958C15.3246 17.5265 17.7037 15.0417 17.7037 12.0013C17.7037 9.64355 16.2731 7.61996 14.2327 6.75112L14.6359 5.15284C17.3847 6.21115 19.3351 8.87723 19.3351 11.9989C19.3351 16.049 16.0519 19.3322 12.0018 19.3322C11.8228 19.3322 11.6453 19.3258 11.4695 19.3132Z" fill="white"/>
</g>
<defs>
<clipPath id="clip0_510_20775">
<rect width="24" height="24" fill="white"/>
</clipPath>
</defs>
</svg>
