<svg width="64" height="372" viewBox="0 0 64 372" fill="none" xmlns="http://www.w3.org/2000/svg">
<path d="M40.2774 32C40.7275 31.0352 41 30.0189 41 28.9723C41 22.9572 34 22.456 32 27.1622C30 22.456 23 22.9572 23 28.9723C23 34.9873 32 40 32 40C32 40 32.3868 39.7846 33 39.3894" stroke="#181818" stroke-width="2" stroke-linecap="round" stroke-linejoin="round"/>
<path d="M34 36H37M37 36H40M37 36V33M37 36V39" stroke="#181818" stroke-width="2" stroke-linecap="round" stroke-linejoin="round"/>
<path d="M40.2774 76C40.7275 75.0352 41 74.0189 41 72.9723C41 66.9572 34 66.456 32 71.1622C30 66.456 23 66.9572 23 72.9723C23 78.9873 32 84 32 84C32 84 32.3868 83.7846 33 83.3894" stroke="white" stroke-width="2" stroke-linecap="round" stroke-linejoin="round"/>
<path d="M34 80H37M37 80H40M37 80V77M37 80V83" stroke="white" stroke-width="2" stroke-linecap="round" stroke-linejoin="round"/>
<path d="M40.2774 120C40.7275 119.035 41 118.019 41 116.972C41 110.957 34 110.456 32 115.162C30 110.456 23 110.957 23 116.972C23 122.987 32 128 32 128C32 128 32.3868 127.785 33 127.389" stroke="#E1FF40" stroke-width="2" stroke-linecap="round" stroke-linejoin="round"/>
<path d="M34 124H37M37 124H40M37 124V121M37 124V127" stroke="#E1FF40" stroke-width="2" stroke-linecap="round" stroke-linejoin="round"/>
<path d="M40.2774 164C40.7275 163.035 41 162.019 41 160.972C41 154.957 34 154.456 32 159.162C30 154.456 23 154.957 23 160.972C23 166.987 32 172 32 172C32 172 32.3868 171.785 33 171.389" stroke="#A4A4A4" stroke-width="2" stroke-linecap="round" stroke-linejoin="round"/>
<path d="M34 168H37M37 168H40M37 168V165M37 168V171" stroke="#A4A4A4" stroke-width="2" stroke-linecap="round" stroke-linejoin="round"/>
<path fill-rule="evenodd" clip-rule="evenodd" d="M23 204.972C23 198.957 30 198.456 32 203.162C34 198.456 41 198.957 41 204.972C41 210.987 32 216 32 216C32 216 23 210.987 23 204.972Z" fill="#E1FF40"/>
<path d="M40.2774 208C40.7275 207.035 41 206.019 41 204.972C41 198.957 34 198.456 32 203.162C30 198.456 23 198.957 23 204.972C23 210.987 32 216 32 216C32 216 32.3868 215.785 33 215.389" stroke="#181818" stroke-width="2" stroke-linecap="round" stroke-linejoin="round"/>
<path d="M41.5 212L38 215L36 213" stroke="#181818" stroke-width="2" stroke-linecap="round" stroke-linejoin="round"/>
<path fill-rule="evenodd" clip-rule="evenodd" d="M23 248.972C23 242.957 30 242.456 32 247.162C34 242.456 41 242.957 41 248.972C41 254.987 32 260 32 260C32 260 23 254.987 23 248.972Z" fill="#F3FFB3"/>
<path d="M40.2774 252C40.7275 251.035 41 250.019 41 248.972C41 242.957 34 242.456 32 247.162C30 242.456 23 242.957 23 248.972C23 254.987 32 260 32 260C32 260 32.3868 259.785 33 259.389" stroke="#A4A4A4" stroke-width="2" stroke-linecap="round" stroke-linejoin="round"/>
<path d="M41.5 256L38 259L36 257" stroke="#A4A4A4" stroke-width="2" stroke-linecap="round" stroke-linejoin="round"/>
<path d="M33 303.389C32.3868 303.785 32 304 32 304C32 304 23 298.987 23 292.972C23 286.957 30 286.456 32 291.162C34 286.456 41 286.957 41 292.972C41 293.663 40.8812 294.341 40.6708 295" stroke="#181818" stroke-width="2" stroke-linecap="round" stroke-linejoin="round"/>
<path d="M40 297.782C40 297.508 39.9998 297.371 39.9453 297.267C39.8974 297.175 39.8212 297.1 39.7271 297.053C39.6201 297 39.4798 297 39.1998 297H32.7998C32.5198 297 32.3799 297 32.2729 297.053C32.1789 297.1 32.1024 297.175 32.0545 297.267C32 297.371 32 297.508 32 297.782V298.142C32 298.261 32 298.321 32.0138 298.377C32.0261 298.427 32.0463 298.475 32.0737 298.518C32.1046 298.568 32.148 298.61 32.2344 298.694L34.7657 301.167C34.8522 301.252 34.8952 301.294 34.9261 301.343C34.9536 301.387 34.9741 301.435 34.9863 301.484C35 301.54 35 301.599 35 301.716V304.039C35 304.458 35 304.667 35.0903 304.794C35.1691 304.904 35.2907 304.977 35.4268 304.997C35.5826 305.019 35.7744 304.926 36.1577 304.738L36.5577 304.543C36.7182 304.465 36.7983 304.425 36.857 304.367C36.9088 304.315 36.9485 304.253 36.9727 304.184C37 304.107 37 304.019 37 303.844V301.72C37 301.6 37 301.541 37.0138 301.484C37.0261 301.435 37.0463 301.387 37.0737 301.343C37.1044 301.294 37.1473 301.252 37.2327 301.169L37.2344 301.167L39.7657 298.694C39.8522 298.61 39.8952 298.568 39.9261 298.518C39.9536 298.475 39.9741 298.427 39.9863 298.377C40 298.322 40 298.262 40 298.145V297.782Z" fill="#181818"/>
<path fill-rule="evenodd" clip-rule="evenodd" d="M23 336.972C23 330.957 30 330.456 32 335.162C34 330.456 41 330.957 41 336.972C41 342.987 32 348 32 348C32 348 23 342.987 23 336.972Z" fill="#E1FF40"/>
<path d="M33 347.389C32.3868 347.785 32 348 32 348C32 348 23 342.987 23 336.972C23 330.957 30 330.456 32 335.162C34 330.456 41 330.957 41 336.972C41 337.663 40.8812 338.341 40.6708 339" stroke="#181818" stroke-width="2" stroke-linecap="round" stroke-linejoin="round"/>
<path d="M40 341.782C40 341.508 39.9998 341.371 39.9453 341.267C39.8974 341.175 39.8212 341.1 39.7271 341.053C39.6201 341 39.4798 341 39.1998 341H32.7998C32.5198 341 32.3799 341 32.2729 341.053C32.1789 341.1 32.1024 341.175 32.0545 341.267C32 341.371 32 341.508 32 341.782V342.142C32 342.261 32 342.321 32.0138 342.377C32.0261 342.427 32.0463 342.475 32.0737 342.518C32.1046 342.568 32.148 342.61 32.2344 342.694L34.7657 345.167C34.8522 345.252 34.8952 345.294 34.9261 345.343C34.9536 345.387 34.9741 345.435 34.9863 345.484C35 345.54 35 345.599 35 345.716V348.039C35 348.458 35 348.667 35.0903 348.794C35.1691 348.904 35.2907 348.977 35.4268 348.997C35.5826 349.019 35.7744 348.926 36.1577 348.738L36.5577 348.543C36.7182 348.465 36.7983 348.425 36.857 348.367C36.9088 348.315 36.9485 348.253 36.9727 348.184C37 348.107 37 348.019 37 347.844V345.72C37 345.6 37 345.541 37.0138 345.484C37.0261 345.435 37.0463 345.387 37.0737 345.343C37.1044 345.294 37.1473 345.252 37.2327 345.169L37.2344 345.167L39.7657 342.694C39.8522 342.61 39.8952 342.568 39.9261 342.518C39.9536 342.475 39.9741 342.427 39.9863 342.377C40 342.322 40 342.262 40 342.145V341.782Z" fill="#181818"/>
</svg>
