<svg width="24" height="24" viewBox="0 0 24 24" fill="none" xmlns="http://www.w3.org/2000/svg">
<path d="M2 18C2 15.7909 4.68629 14 8 14C8.51795 14 9.02057 14.0438 9.5 14.126M8 11C5.79086 11 4 9.20914 4 7C4 4.79086 5.79086 3 8 3C10.2091 3 12 4.79086 12 7C12 9.20914 10.2091 11 8 11Z" stroke="#181818" stroke-width="2" stroke-linecap="round" stroke-linejoin="round"/>
<path d="M16.2864 18.9444H13.253V22M18.7132 14.0556H21.7467V11M13 14.6687C13.3402 13.8207 13.9097 13.0857 14.6439 12.5475C15.378 12.0092 16.2481 11.689 17.1539 11.6236C18.0596 11.5582 18.9648 11.7501 19.7677 12.1774C20.5706 12.6047 21.2378 13.2504 21.6946 14.041M22 18.3315C21.6598 19.1796 21.0903 19.9145 20.3561 20.4528C19.622 20.9911 18.7527 21.3108 17.847 21.3762C16.9413 21.4416 16.0353 21.2498 15.2324 20.8225C14.4296 20.3952 13.7619 19.7496 13.3051 18.9591" stroke="#181818" stroke-width="2" stroke-linecap="round" stroke-linejoin="round"/>
</svg>
