<svg width="24" height="24" viewBox="0 0 24 24" fill="none" xmlns="http://www.w3.org/2000/svg">
<g clip-path="url(#clip0_510_20737)">
<circle cx="12" cy="12" r="12" fill="#181818"/>
<path fill-rule="evenodd" clip-rule="evenodd" d="M14.3796 2.6665L8.66528 13.6469H11.5224L9.61766 21.3332L15.3319 10.3528H12.4748L14.3796 2.6665ZM13.8587 4.90267L13.8584 4.90259L13.459 6.48588L13.4592 6.48594L13.8587 4.90267ZM12.0018 4.66553C12.1808 4.66553 12.3583 4.67194 12.5342 4.68456L11.6747 6.30667C8.67593 6.47526 6.29622 8.96035 6.29622 12.0013C6.29622 14.3598 7.72771 16.3839 9.76925 17.2523L9.36742 18.8448C6.6188 17.7865 4.66843 15.1204 4.66843 11.9989C4.66843 7.94877 7.95167 4.66553 12.0018 4.66553ZM11.4695 19.3132L12.3265 17.6958C15.3246 17.5265 17.7036 15.0417 17.7036 12.0013C17.7036 9.64355 16.2731 7.61996 14.2326 6.75112L14.6359 5.15284C17.3846 6.21115 19.3351 8.87723 19.3351 11.9989C19.3351 16.049 16.0519 19.3322 12.0018 19.3322C11.8228 19.3322 11.6453 19.3258 11.4695 19.3132Z" fill="#E1FF40"/>
</g>
<defs>
<clipPath id="clip0_510_20737">
<rect width="24" height="24" fill="white"/>
</clipPath>
</defs>
</svg>
