<svg width="24" height="24" viewBox="0 0 24 24" fill="none" xmlns="http://www.w3.org/2000/svg">
<path fill-rule="evenodd" clip-rule="evenodd" d="M3 8.97234C3 2.95722 10 2.45597 12 7.16221C14 2.45597 21 2.95722 21 8.97234C21 14.9875 12 20 12 20C12 20 3 14.9875 3 8.97234Z"/>
<path d="M20.2774 12C20.7275 11.0352 21 10.0189 21 8.97228C21 2.95724 14 2.45598 12 7.16217C10 2.45598 3 2.95724 3 8.97228C3 14.9873 12 20 12 20C12 20 12.3868 19.7846 13 19.3894" stroke="#181818" stroke-width="2" stroke-linecap="round" stroke-linejoin="round"/>
<path d="M21.5 16L18 19L16 17" stroke="#181818" stroke-width="2" stroke-linecap="round" stroke-linejoin="round"/>
</svg>
