<svg width="24" height="24" viewBox="0 0 24 24" fill="none" xmlns="http://www.w3.org/2000/svg">
<path d="M8.20019 9H15.8002M8.20019 9C7.08009 9 7.51962 9 7.0918 9.21799C6.71547 9.40973 6.40973 9.71547 6.21799 10.0918C6 10.5196 6 11.0801 6 12.2002V17.8002C6 18.9203 6 19.4801 6.21799 19.9079C6.40973 20.2842 6.71547 20.5905 7.0918 20.7822C7.5192 21 8.07902 21 9.19694 21H14.8031C15.921 21 16.48 21 16.9074 20.7822C17.2837 20.5905 17.5905 20.2842 17.7822 19.9079C18 19.4805 18 18.9215 18 17.8036V12.1969C18 11.079 18 10.5192 17.7822 10.0918C17.5905 9.71547 17.2837 9.40973 16.9074 9.21799C16.4796 9 16.9203 9 15.8002 9M8.20019 9C8.07274 9 7.96973 8.89668 7.96973 8.76923V7C7.96973 4.5 9 3 12 3C15 3 16.0313 4.5 16.0313 7V8.76923C16.0313 8.89668 15.9276 9 15.8002 9" stroke="#E1FF40" stroke-width="2" stroke-linecap="round" stroke-linejoin="round"/>
<path fill-rule="evenodd" clip-rule="evenodd" d="M10 14C10 12.8954 10.8954 12 12 12C13.1046 12 14 12.8954 14 14C14 15.1046 13.1046 16 12 16C10.8954 16 10 15.1046 10 14Z" fill="#E1FF40"/>
<path d="M11 15C11 14.4477 11.4477 14 12 14C12.5523 14 13 14.4477 13 15V18C13 18.5523 12.5523 19 12 19C11.4477 19 11 18.5523 11 18V15Z" fill="#E1FF40"/>
</svg>
