<svg width="24" height="24" viewBox="0 0 24 24" fill="none" xmlns="http://www.w3.org/2000/svg">
<g clip-path="url(#clip0_2796_56635)">
<path d="M12 0C5.38047 0 0 5.38047 0 12C0 18.6195 5.38047 24 12 24C18.6195 24 24 18.6195 24 12C24 5.38047 18.6195 0 12 0ZM22.2921 12.7591C22.0353 12.6698 21.7674 12.5916 21.4995 12.5358C21.053 12.4353 20.6065 12.7256 20.506 13.1721C20.4056 13.6186 20.6958 14.0651 21.1535 14.1656C21.4549 14.2326 21.7451 14.333 22.0353 14.4447C21.12 18.173 18.1842 21.12 14.4558 22.0242C14.3442 21.734 14.2437 21.4326 14.1767 21.1312C14.0763 20.6847 13.6409 20.3944 13.1833 20.4837C12.7256 20.5842 12.4465 21.0195 12.5358 21.4772C12.5916 21.7563 12.6698 22.0242 12.7591 22.2921C12.5135 22.3144 12.2567 22.3256 12.0112 22.3256C6.31814 22.3256 1.68558 17.693 1.68558 12C1.68558 11.7433 1.70791 11.4977 1.71907 11.2521C1.98698 11.3414 2.25488 11.4195 2.53395 11.4753C2.58977 11.4865 2.64558 11.4977 2.71256 11.4977C3.10326 11.4977 3.4493 11.2298 3.52744 10.8391C3.62791 10.3926 3.33767 9.94605 2.88 9.84558C2.56744 9.7786 2.27721 9.67814 1.98698 9.56651C2.90233 5.83814 5.83814 2.89116 9.56651 1.98698C9.67814 2.27721 9.7786 2.56744 9.84558 2.86884C9.93488 3.25954 10.2809 3.52744 10.6605 3.52744C10.7163 3.52744 10.7833 3.52744 10.8391 3.50512C11.2856 3.40465 11.5758 2.95814 11.4753 2.51163C11.4195 2.24372 11.3414 1.97581 11.2521 1.71907C11.4977 1.69674 11.7544 1.68558 12.0112 1.68558C17.7042 1.68558 22.3367 6.31814 22.3367 12.0112C22.3367 12.2679 22.3144 12.5135 22.3033 12.7702L22.2921 12.7591ZM19.4791 13.1609C19.5684 13.6186 19.267 14.054 18.8093 14.1321C18.0391 14.2772 17.3135 14.5674 16.6549 15.0028C16.5098 15.0921 16.3535 15.1367 16.1972 15.1367C15.9293 15.1367 15.6614 15.0028 15.494 14.7572C15.2372 14.3665 15.3488 13.853 15.7284 13.5963C16.5767 13.0381 17.5033 12.6586 18.4967 12.48C18.9544 12.3907 19.3898 12.6921 19.4791 13.1498V13.1609ZM14.7795 15.4828C15.1591 15.7395 15.2707 16.2642 15.014 16.6437C14.5786 17.2912 14.2772 18.0167 14.1321 18.787C14.054 19.1888 13.7079 19.4679 13.306 19.4679C13.2502 19.4679 13.2056 19.4679 13.1498 19.4567C12.6921 19.3674 12.4019 18.9321 12.48 18.4744C12.6698 17.4809 13.0493 16.5544 13.6186 15.706C13.8753 15.3265 14.4 15.2149 14.7795 15.4716V15.4828ZM8.51721 9.22047C8.77395 9.6 8.67349 10.1247 8.28279 10.3814C7.44558 10.9395 6.50791 11.3191 5.51442 11.5088C5.4586 11.5088 5.41395 11.52 5.35814 11.52C4.96744 11.52 4.61023 11.2409 4.53209 10.8391C4.44279 10.3814 4.74419 9.94605 5.20186 9.85674C5.97209 9.71163 6.69767 9.41023 7.34512 8.97488C7.72465 8.71814 8.2493 8.81861 8.50605 9.2093L8.51721 9.22047ZM11.5088 5.49209C11.3191 6.48558 10.9507 7.42326 10.3926 8.26047C10.2363 8.50605 9.96837 8.64 9.6893 8.64C9.53302 8.64 9.36558 8.59535 9.23163 8.50605C8.84093 8.2493 8.74047 7.73581 8.99721 7.34512C9.43256 6.68651 9.72279 5.97209 9.86791 5.1907C9.95721 4.73302 10.3926 4.43163 10.8502 4.52093C11.3079 4.61023 11.6093 5.04558 11.52 5.50326L11.5088 5.49209Z" fill="black"/>
</g>
<defs>
<clipPath id="clip0_2796_56635">
<rect width="24" height="24" fill="white"/>
</clipPath>
</defs>
</svg>
