<svg width="24" height="24" viewBox="0 0 24 24" fill="none" xmlns="http://www.w3.org/2000/svg">
<path d="M10 20H7.2C6.0799 20 5.51984 20 5.09202 19.782C4.7157 19.5903 4.40973 19.2843 4.21799 18.908C4 18.4802 4 17.9201 4 16.8L4 7.2C4 6.0799 4 5.51984 4.21799 5.09202C4.40973 4.7157 4.71569 4.40973 5.09202 4.21799C5.51984 4 6.07989 4 7.2 4L16.8 4C17.9201 4 18.4802 4 18.908 4.21799C19.2843 4.40973 19.5903 4.71569 19.782 5.09202C20 5.51984 20 6.0799 20 7.2V10" fill="#E1FF40"/>
<path d="M19 19L16 16M10.0002 20H7.19692C6.07901 20 5.5192 20 5.0918 19.7822C4.71547 19.5905 4.40973 19.2842 4.21799 18.9079C4 18.4801 4 17.9203 4 16.8002V7.2002C4 6.08009 4 5.51962 4.21799 5.0918C4.40973 4.71547 4.71547 4.40973 5.0918 4.21799C5.51962 4 6.08009 4 7.2002 4H16.8002C17.9203 4 18.4796 4 18.9074 4.21799C19.2837 4.40973 19.5905 4.71547 19.7822 5.0918C20 5.5192 20 6.07899 20 7.19691V10.0002M13.5 17C11.567 17 10 15.433 10 13.5C10 11.567 11.567 10 13.5 10C15.433 10 17 11.567 17 13.5C17 15.433 15.433 17 13.5 17Z" stroke="#181818" stroke-width="2" stroke-linecap="round" stroke-linejoin="round"/>
</svg>
