<svg width="24" height="24" viewBox="0 0 24 24" fill="none" xmlns="http://www.w3.org/2000/svg">
<path fill-rule="evenodd" clip-rule="evenodd" d="M18.9072 9.04399C19.3093 9.39586 19.5104 9.57179 19.6548 9.78442C19.7827 9.97285 19.8775 10.1817 19.935 10.4021C20 10.6507 20 10.9179 20 11.4522V17.0002C20 17.9321 20 18.398 19.8478 18.7655C19.6448 19.2556 19.2554 19.6449 18.7654 19.8479C18.3978 20.0002 17.9319 20.0002 17 20.0002C16.0681 20.0002 15.6022 20.0002 15.2346 19.8479C14.7446 19.6449 14.3552 19.2556 14.1522 18.7655C14 18.398 14 17.9321 14 17.0002V16.0002C14 14.8956 13.1046 14.0002 12 14.0002C10.8954 14.0002 10 14.8956 10 16.0002V17.0002C10 17.9321 10 18.398 9.84776 18.7655C9.64477 19.2556 9.25542 19.6449 8.76537 19.8479C8.39782 20.0002 7.93188 20.0002 7 20.0002C6.06812 20.0002 5.60218 20.0002 5.23463 19.8479C4.74458 19.6449 4.35523 19.2556 4.15224 18.7655C4 18.398 4 17.9321 4 17.0002V11.4522C4 10.9179 4 10.6507 4.06497 10.4021C4.12255 10.1817 4.21734 9.97285 4.34525 9.78442C4.48959 9.57179 4.69065 9.39586 5.09279 9.04399L9.89279 4.84399C10.6394 4.19071 11.0127 3.86406 11.4328 3.73982C11.803 3.63035 12.197 3.63035 12.5672 3.73982C12.9873 3.86406 13.3606 4.19071 14.1072 4.84399L18.9072 9.04399Z" fill="#E1FF40"/>
<path d="M20 17.0002V11.4522C20 10.9179 19.9995 10.6506 19.9346 10.4019C19.877 10.1816 19.7825 9.97307 19.6546 9.78464C19.5102 9.57201 19.3096 9.39569 18.9074 9.04383L14.1074 4.84383C13.3608 4.19054 12.9875 3.86406 12.5674 3.73982C12.1972 3.63035 11.8026 3.63035 11.4324 3.73982C11.0126 3.86397 10.6398 4.19014 9.89436 4.84244L5.09277 9.04383C4.69064 9.39569 4.49004 9.57201 4.3457 9.78464C4.21779 9.97307 4.12255 10.1816 4.06497 10.4019C4 10.6506 4 10.9179 4 11.4522V17.0002C4 17.932 4 18.3978 4.15224 18.7654C4.35523 19.2554 4.74432 19.6452 5.23438 19.8482C5.60192 20.0005 6.06786 20.0005 6.99974 20.0005C7.93163 20.0005 8.39808 20.0005 8.76562 19.8482C9.25568 19.6452 9.64467 19.2555 9.84766 18.7654C9.9999 18.3979 10 17.932 10 17.0001V16.0001C10 14.8955 10.8954 14.0001 12 14.0001C13.1046 14.0001 14 14.8955 14 16.0001V17.0001C14 17.932 14 18.3979 14.1522 18.7654C14.3552 19.2555 14.7443 19.6452 15.2344 19.8482C15.6019 20.0005 16.0679 20.0005 16.9997 20.0005C17.9316 20.0005 18.3981 20.0005 18.7656 19.8482C19.2557 19.6452 19.6447 19.2554 19.8477 18.7654C19.9999 18.3978 20 17.932 20 17.0002Z" stroke="#181818" stroke-width="2" stroke-linecap="round" stroke-linejoin="round"/>
</svg>
