<svg width="24" height="24" viewBox="0 0 24 24" fill="none" xmlns="http://www.w3.org/2000/svg">
<path fill-rule="evenodd" clip-rule="evenodd" d="M5.41421 17C5.02866 17 4.83589 17 4.68039 16.9476C4.38452 16.8478 4.15225 16.6155 4.05245 16.3196C4 16.1641 4 15.9714 4 15.5858C4 15.4171 4 15.3327 4.0132 15.2523C4.03815 15.1003 4.09787 14.9561 4.18771 14.831C4.23526 14.7648 4.29491 14.7051 4.41421 14.5858L4.80372 14.1963C4.9294 14.0706 5 13.9002 5 13.7224V10C5 6.13401 8.134 3.00001 12 3C15.866 2.99999 19 6.134 19 10V13.7224C19 13.9001 19.0706 14.0706 19.1963 14.1963L19.5858 14.5858C19.7051 14.7051 19.7648 14.7648 19.8123 14.831C19.9021 14.9561 19.9619 15.1003 19.9868 15.2523C20 15.3327 20 15.4171 20 15.5858C20 15.9714 20 16.1641 19.9475 16.3196C19.8477 16.6155 19.6155 16.8478 19.3196 16.9476C19.1641 17 18.9713 17 18.5858 17H5.41421Z" fill="#E1FF40"/>
<path fill-rule="evenodd" clip-rule="evenodd" d="M15 17V18C15 19.6569 13.6569 21 12 21C10.3431 21 9 19.6569 9 18V17H15Z" fill="#E1FF40"/>
<path d="M15 17V18C15 19.6569 13.6569 21 12 21C10.3431 21 9 19.6569 9 18V17M15 17H9M15 17H18.5905C18.973 17 19.1652 17 19.3201 16.9478C19.616 16.848 19.8475 16.6156 19.9473 16.3198C19.9997 16.1643 19.9997 15.9715 19.9997 15.5859C19.9997 15.4172 19.9995 15.3329 19.9863 15.2524C19.9614 15.1004 19.9024 14.9563 19.8126 14.8312C19.7651 14.7651 19.7048 14.7048 19.5858 14.5858L19.1963 14.1963C19.0706 14.0706 19 13.9001 19 13.7224V10C19 6.134 15.866 2.99999 12 3C8.13401 3.00001 5 6.13401 5 10V13.7224C5 13.9002 4.92924 14.0706 4.80357 14.1963L4.41406 14.5858C4.29476 14.7051 4.23504 14.765 4.1875 14.8312C4.09766 14.9564 4.03815 15.1004 4.0132 15.2524C4 15.3329 4 15.4172 4 15.586C4 15.9715 4 16.1642 4.05245 16.3197C4.15225 16.6156 4.3848 16.848 4.68066 16.9478C4.83556 17 5.02701 17 5.40956 17H9" stroke="#181818" stroke-width="2" stroke-linecap="round" stroke-linejoin="round"/>
</svg>
